<?xml version="1.0" encoding="UTF-8"?>
<svg xmlns="http://www.w3.org/2000/svg" width="1700" height="840" viewBox="0 0 1700 840">
  <defs>
    <pattern id="grid" width="18" height="18" patternUnits="userSpaceOnUse">
      <circle cx="2" cy="2" r="1.2" fill="#9aa7c7" opacity="0.62"/>
    </pattern>
    <linearGradient id="greenGrad" x1="0" y1="0" x2="1" y2="1">
      <stop offset="0%" stop-color="#b8ff4b"/>
      <stop offset="48%" stop-color="#63dd08"/>
      <stop offset="100%" stop-color="#2e9d02"/>
    </linearGradient>
    <linearGradient id="orangeGrad" x1="0" y1="0" x2="1" y2="1">
      <stop offset="0%" stop-color="#ffd66a"/>
      <stop offset="55%" stop-color="#ffb018"/>
      <stop offset="100%" stop-color="#d27b00"/>
    </linearGradient>
    <linearGradient id="cyanGrad" x1="0" y1="0" x2="1" y2="1">
      <stop offset="0%" stop-color="#68eff2"/>
      <stop offset="100%" stop-color="#18a9b7"/>
    </linearGradient>
    <linearGradient id="grayGrad" x1="0" y1="0" x2="1" y2="1">
      <stop offset="0%" stop-color="#eef7f5"/>
      <stop offset="100%" stop-color="#aebfbc"/>
    </linearGradient>
    <marker id="arrow" markerWidth="11" markerHeight="11" refX="10" refY="3.5" orient="auto" markerUnits="strokeWidth">
      <path d="M0,0 L11,3.5 L0,7 Z" fill="#444"/>
    </marker>
    <style>
      .page { fill: #fff; }
      .title { font: 700 30px Arial, sans-serif; fill: #222; text-anchor: middle; }
      .subtitle { font: 400 16px Arial, sans-serif; fill: #555; text-anchor: middle; }
      .label { font: 700 15px Arial, sans-serif; fill: #111; text-anchor: middle; dominant-baseline: middle; }
      .small { font: 700 12px Arial, sans-serif; fill: #111; text-anchor: middle; dominant-baseline: middle; }
      .tiny { font: 700 10.5px Arial, sans-serif; fill: #111; text-anchor: middle; dominant-baseline: middle; }
      .line { stroke: #454545; stroke-width: 2.6; fill: none; marker-end: url(#arrow); }
      .linePlain { stroke: #454545; stroke-width: 2.6; fill: none; }
      .dash { stroke: #555; stroke-width: 2.2; fill: none; stroke-dasharray: 7 6; }
      .func { fill: url(#greenGrad); stroke: #42a90e; stroke-width: 2.8; filter: drop-shadow(3px 4px 2px rgb(0 0 0 / 0.23)); }
      .event { fill: url(#orangeGrad); stroke: #c57900; stroke-width: 2.8; filter: drop-shadow(3px 4px 2px rgb(0 0 0 / 0.23)); }
      .org { fill: url(#cyanGrad); stroke: #087d89; stroke-width: 2.6; rx: 7; ry: 7; filter: drop-shadow(3px 4px 2px rgb(0 0 0 / 0.21)); }
      .role { fill: #ffe56c; stroke: #c19b00; stroke-width: 2.4; rx: 7; ry: 7; filter: drop-shadow(3px 4px 2px rgb(0 0 0 / 0.18)); }
      .data { fill: url(#cyanGrad); stroke: #087d89; stroke-width: 2.6; rx: 7; ry: 7; filter: drop-shadow(3px 4px 2px rgb(0 0 0 / 0.21)); }
      .attr { fill: url(#grayGrad); stroke: #89a29d; stroke-width: 2; rx: 5; ry: 5; filter: drop-shadow(2px 3px 2px rgb(0 0 0 / 0.18)); }
      .xor { fill: #f6f6f6; stroke: #444; stroke-width: 2.8; }
      .legend { fill: #f8f8f8; stroke: #b8b8b8; stroke-width: 1.4; rx: 8; }
    </style>
  </defs>
  <rect class="page" width="1700" height="840"/>
  <rect width="1700" height="840" fill="url(#grid)"/>
  <text class="title" x="850" y="42">Data Model «База данных event-агентства»</text>
  <text class="subtitle" x="850" y="68">Data Model: сущности базы данных event-агентства</text><rect class="data" x="65" y="120" width="155" height="50"/>
<text class="small" x="142.5" y="145"><tspan x="142.5" dy="0">Клиенты</tspan></text><rect class="attr" x="80" y="196" width="125" height="40"/>
<text class="small" x="142.5" y="216"><tspan x="142.5" dy="0">id_клиента</tspan></text><path class="linePlain" d="M143 170 L143 196"/><rect class="attr" x="80" y="254" width="125" height="40"/>
<text class="small" x="142.5" y="274"><tspan x="142.5" dy="0">Название_компании</tspan></text><path class="linePlain" d="M143 236 L143 254"/><rect class="attr" x="80" y="312" width="125" height="40"/>
<text class="small" x="142.5" y="332"><tspan x="142.5" dy="0">ФИО</tspan></text><path class="linePlain" d="M143 294 L143 312"/><rect class="attr" x="80" y="370" width="125" height="40"/>
<text class="small" x="142.5" y="390"><tspan x="142.5" dy="0">Телефон</tspan></text><path class="linePlain" d="M143 352 L143 370"/><rect class="attr" x="80" y="428" width="125" height="40"/>
<text class="small" x="142.5" y="448"><tspan x="142.5" dy="0">Email</tspan></text><path class="linePlain" d="M143 410 L143 428"/><rect class="data" x="285" y="120" width="155" height="50"/>
<text class="small" x="362.5" y="145"><tspan x="362.5" dy="0">Мероприятия</tspan></text><rect class="attr" x="300" y="196" width="125" height="40"/>
<text class="small" x="362.5" y="216"><tspan x="362.5" dy="0">id_мероприятия</tspan></text><path class="linePlain" d="M363 170 L363 196"/><rect class="attr" x="300" y="254" width="125" height="40"/>
<text class="small" x="362.5" y="274"><tspan x="362.5" dy="0">id_клиента</tspan></text><path class="linePlain" d="M363 236 L363 254"/><rect class="attr" x="300" y="312" width="125" height="40"/>
<text class="small" x="362.5" y="332"><tspan x="362.5" dy="0">id_менеджера</tspan></text><path class="linePlain" d="M363 294 L363 312"/><rect class="attr" x="300" y="370" width="125" height="40"/>
<text class="small" x="362.5" y="390"><tspan x="362.5" dy="0">Дата_проведения</tspan></text><path class="linePlain" d="M363 352 L363 370"/><rect class="attr" x="300" y="428" width="125" height="40"/>
<text class="small" x="362.5" y="448"><tspan x="362.5" dy="0">Место_проведения</tspan></text><path class="linePlain" d="M363 410 L363 428"/><rect class="attr" x="300" y="486" width="125" height="40"/>
<text class="small" x="362.5" y="506"><tspan x="362.5" dy="0">Формат</tspan></text><path class="linePlain" d="M363 468 L363 486"/><rect class="attr" x="300" y="544" width="125" height="40"/>
<text class="small" x="362.5" y="564"><tspan x="362.5" dy="0">Бюджет</tspan></text><path class="linePlain" d="M363 526 L363 544"/><rect class="attr" x="300" y="602" width="125" height="40"/>
<text class="small" x="362.5" y="622"><tspan x="362.5" dy="0">Статус</tspan></text><path class="linePlain" d="M363 584 L363 602"/><rect class="data" x="540" y="120" width="155" height="50"/>
<text class="small" x="617.5" y="145"><tspan x="617.5" dy="0">Ресурсы</tspan></text><rect class="attr" x="555" y="196" width="125" height="40"/>
<text class="small" x="617.5" y="216"><tspan x="617.5" dy="0">id_ресурса</tspan></text><path class="linePlain" d="M618 170 L618 196"/><rect class="attr" x="555" y="254" width="125" height="40"/>
<text class="small" x="617.5" y="274"><tspan x="617.5" dy="0">Тип_ресурса</tspan></text><path class="linePlain" d="M618 236 L618 254"/><rect class="attr" x="555" y="312" width="125" height="40"/>
<text class="small" x="617.5" y="332"><tspan x="617.5" dy="0">Описание</tspan></text><path class="linePlain" d="M618 294 L618 312"/><rect class="attr" x="555" y="370" width="125" height="40"/>
<text class="small" x="617.5" y="390"><tspan x="617.5" dy="0">Стоимость</tspan></text><path class="linePlain" d="M618 352 L618 370"/><rect class="attr" x="555" y="428" width="125" height="40"/>
<text class="small" x="617.5" y="448"><tspan x="617.5" dy="0">Поставщик</tspan></text><path class="linePlain" d="M618 410 L618 428"/><rect class="data" x="760" y="120" width="155" height="50"/>
<text class="small" x="837.5" y="145"><tspan x="837.5" dy="0">Подрядчики</tspan></text><rect class="attr" x="775" y="196" width="125" height="40"/>
<text class="small" x="837.5" y="216"><tspan x="837.5" dy="0">id_подрядчика</tspan></text><path class="linePlain" d="M838 170 L838 196"/><rect class="attr" x="775" y="254" width="125" height="40"/>
<text class="small" x="837.5" y="274"><tspan x="837.5" dy="0">Название</tspan></text><path class="linePlain" d="M838 236 L838 254"/><rect class="attr" x="775" y="312" width="125" height="40"/>
<text class="small" x="837.5" y="332"><tspan x="837.5" dy="0">Тип_услуг</tspan></text><path class="linePlain" d="M838 294 L838 312"/><rect class="attr" x="775" y="370" width="125" height="40"/>
<text class="small" x="837.5" y="390"><tspan x="837.5" dy="0">Контакт</tspan></text><path class="linePlain" d="M838 352 L838 370"/><rect class="attr" x="775" y="428" width="125" height="40"/>
<text class="small" x="837.5" y="448"><tspan x="837.5" dy="0">Стоимость</tspan></text><path class="linePlain" d="M838 410 L838 428"/><rect class="data" x="1000" y="120" width="155" height="50"/>
<text class="small" x="1077.5" y="145"><tspan x="1077.5" dy="0">Задачи проекта</tspan></text><rect class="attr" x="1015" y="196" width="125" height="40"/>
<text class="small" x="1077.5" y="216"><tspan x="1077.5" dy="0">id_задачи</tspan></text><path class="linePlain" d="M1078 170 L1078 196"/><rect class="attr" x="1015" y="254" width="125" height="40"/>
<text class="small" x="1077.5" y="274"><tspan x="1077.5" dy="0">id_мероприятия</tspan></text><path class="linePlain" d="M1078 236 L1078 254"/><rect class="attr" x="1015" y="312" width="125" height="40"/>
<text class="small" x="1077.5" y="332"><tspan x="1077.5" dy="0">id_сотрудника</tspan></text><path class="linePlain" d="M1078 294 L1078 312"/><rect class="attr" x="1015" y="370" width="125" height="40"/>
<text class="small" x="1077.5" y="390"><tspan x="1077.5" dy="0">Описание_задачи</tspan></text><path class="linePlain" d="M1078 352 L1078 370"/><rect class="attr" x="1015" y="428" width="125" height="40"/>
<text class="small" x="1077.5" y="448"><tspan x="1077.5" dy="0">Срок_выполнения</tspan></text><path class="linePlain" d="M1078 410 L1078 428"/><rect class="attr" x="1015" y="486" width="125" height="40"/>
<text class="small" x="1077.5" y="506"><tspan x="1077.5" dy="0">Статус</tspan></text><path class="linePlain" d="M1078 468 L1078 486"/><rect class="data" x="1245" y="120" width="155" height="50"/>
<text class="small" x="1322.5" y="145"><tspan x="1322.5" dy="0">Сотрудники</tspan></text><rect class="attr" x="1260" y="196" width="125" height="40"/>
<text class="small" x="1322.5" y="216"><tspan x="1322.5" dy="0">id_сотрудника</tspan></text><path class="linePlain" d="M1323 170 L1323 196"/><rect class="attr" x="1260" y="254" width="125" height="40"/>
<text class="small" x="1322.5" y="274"><tspan x="1322.5" dy="0">ФИО</tspan></text><path class="linePlain" d="M1323 236 L1323 254"/><rect class="attr" x="1260" y="312" width="125" height="40"/>
<text class="small" x="1322.5" y="332"><tspan x="1322.5" dy="0">Должность</tspan></text><path class="linePlain" d="M1323 294 L1323 312"/><rect class="attr" x="1260" y="370" width="125" height="40"/>
<text class="small" x="1322.5" y="390"><tspan x="1322.5" dy="0">Телефон</tspan></text><path class="linePlain" d="M1323 352 L1323 370"/><rect class="attr" x="1260" y="428" width="125" height="40"/>
<text class="small" x="1322.5" y="448"><tspan x="1322.5" dy="0">Отдел</tspan></text><path class="linePlain" d="M1323 410 L1323 428"/><rect class="data" x="1480" y="120" width="155" height="50"/>
<text class="small" x="1557.5" y="145"><tspan x="1557.5" dy="0">Документы</tspan></text><rect class="attr" x="1495" y="196" width="125" height="40"/>
<text class="small" x="1557.5" y="216"><tspan x="1557.5" dy="0">id_документа</tspan></text><path class="linePlain" d="M1558 170 L1558 196"/><rect class="attr" x="1495" y="254" width="125" height="40"/>
<text class="small" x="1557.5" y="274"><tspan x="1557.5" dy="0">id_мероприятия</tspan></text><path class="linePlain" d="M1558 236 L1558 254"/><rect class="attr" x="1495" y="312" width="125" height="40"/>
<text class="small" x="1557.5" y="332"><tspan x="1557.5" dy="0">Тип_документа</tspan></text><path class="linePlain" d="M1558 294 L1558 312"/><rect class="attr" x="1495" y="370" width="125" height="40"/>
<text class="small" x="1557.5" y="390"><tspan x="1557.5" dy="0">Дата</tspan></text><path class="linePlain" d="M1558 352 L1558 370"/><rect class="attr" x="1495" y="428" width="125" height="40"/>
<text class="small" x="1557.5" y="448"><tspan x="1557.5" dy="0">Статус</tspan></text><path class="linePlain" d="M1558 410 L1558 428"/><path class="linePlain" d="M220 145 L255 145 L255 196 L285 196"/><path class="linePlain" d="M440 221 L510 221 L510 145 L540 145"/><path class="linePlain" d="M440 279 L970 279 L970 196 L1000 196"/><path class="linePlain" d="M1155 250 L1215 250 L1215 196 L1245 196"/><path class="linePlain" d="M440 337 L1450 337 L1450 196 L1480 196"/><path class="linePlain" d="M695 428 L745 428 L745 196 L760 196"/><text class="tiny" x="250" y="130">1:N</text>
<text class="tiny" x="475" y="207">1:N</text>
<text class="tiny" x="955" y="265">1:N</text>
<text class="tiny" x="1205" y="236">N:1</text>
<text class="tiny" x="1430" y="322">1:N</text>
<rect class="legend" x="55" y="740" width="575" height="62"/>
<rect class="data" x="77" y="755" width="80" height="30"/>
<text class="tiny" x="117" y="770"><tspan x="117" dy="0">Entity</tspan></text>
<rect class="attr" x="260" y="755" width="85" height="30"/>
<text class="tiny" x="302.5" y="770"><tspan x="302.5" dy="0">Attribute</tspan></text>
<text class="small" x="465" y="770">ARIS: Data Model</text>
</svg>